PathFileType	4	(X/Y/Z)	C:/Users/opensim2020/Desktop/walking_exp_matlab/subject01_walking14_straight_04.trc	
DataRate	CameraRate	NumFrames	NumMarkers	Units	OrigDataRate	OrigDataStartFrame	OrigNumFrames	
100.00	100.00	7	42	mm	100.00	2151	89	
Frame#	Time	LFHD			RFHD			LBHD			RBHD			C7			T10			CLAV			STRN			RBAK			LSHO			LUPA			LELB			LFRM			LWRA			LWRB			LFIN			RSHO			RUPA			RELB			RFRM			RWRA			RWRB			RFIN			LASI			RASI			LPSI			RPSI			LTHI			LKNE			LTIB			LANK			LHEE			LTOE			RTHI			RKNE			RTIB			RANK			RHEE			RTOE			*39			*40			*41			
		X1	Y1	Z1	X2	Y2	Z2	X3	Y3	Z3	X4	Y4	Z4	X5	Y5	Z5	X6	Y6	Z6	X7	Y7	Z7	X8	Y8	Z8	X9	Y9	Z9	X10	Y10	Z10	X11	Y11	Z11	X12	Y12	Z12	X13	Y13	Z13	X14	Y14	Z14	X15	Y15	Z15	X16	Y16	Z16	X17	Y17	Z17	X18	Y18	Z18	X19	Y19	Z19	X20	Y20	Z20	X21	Y21	Z21	X22	Y22	Z22	X23	Y23	Z23	X24	Y24	Z24	X25	Y25	Z25	X26	Y26	Z26	X27	Y27	Z27	X28	Y28	Z28	X29	Y29	Z29	X30	Y30	Z30	X31	Y31	Z31	X32	Y32	Z32	X33	Y33	Z33	X34	Y34	Z34	X35	Y35	Z35	X36	Y36	Z36	X37	Y37	Z37	X38	Y38	Z38	X39	Y39	Z39	X40	Y40	Z40	X41	Y41	Z41	X42	Y42	Z42	

78	0.770	-981.90271	-376.28986	1640.15845	-1076.14185	-439.08813	1647.84863	-1046.24329	-271.55310	1615.85022	-1146.60815	-335.89896	1623.49670	-1086.48608	-219.47951	1426.46387	-1106.75867	-176.38857	1129.79626	-1081.51624	-363.05804	1353.17371	-1089.50256	-403.86368	1200.60400	-1175.44824	-160.09277	1238.42139	-923.26465	-292.64825	1376.68311	-850.19397	-253.45845	1191.41309	-857.57782	-230.58098	1040.97900	-837.86670	-264.39233	930.61279	-858.28571	-338.56992	812.75928	-837.76294	-282.58221	809.14526	-827.08386	-325.53113	738.38684	-1230.99768	-302.98712	1401.36682	-1350.43237	-240.77519	1216.09314	-1365.10974	-246.84596	1087.50305	-1392.32715	-296.56168	973.48523	-1361.94617	-395.73984	874.78113	-1404.72449	-358.03506	866.53992	-1403.22119	-412.25433	801.53931	-1005.00848	-362.67236	928.55212	-1221.85217	-357.13409	928.30878	-1051.23071	-175.06224	933.93964	-1196.79443	-174.07794	936.27533	-967.83350	-371.39026	592.04773	-996.77832	-378.25034	458.95422	-1001.06085	-319.51984	276.94205	-1071.05615	-275.52667	70.60191	-1126.65649	-229.47404	44.89887	-1060.88110	-419.63101	32.22766	-1298.52917	-351.10187	594.92871	-1290.81494	-371.40900	438.02249	-1297.42480	-220.41331	350.53952	-1257.51062	-57.13856	223.25938	-1202.30664	-2.73527	235.20354	-1262.50793	-93.34538	83.24353	-1057.02075	-424.08643	1682.16467	-3102.06128	1973.03040	1023.93933	-3140.64795	2012.48853	1022.09686 
79	0.780	-979.70178	-389.66971	1640.49414	-1073.63452	-453.26282	1647.98877	-1044.84119	-285.13126	1616.96130	-1144.68506	-350.19568	1624.42163	-1085.65881	-232.05794	1427.66309	-1105.95642	-188.76746	1130.97156	-1080.09534	-375.61923	1354.29224	-1087.84229	-416.33078	1201.66943	-1174.56030	-172.78879	1239.52917	-922.17804	-304.08600	1377.93713	-849.04297	-265.91980	1192.41675	-856.61462	-246.35788	1041.30029	-836.93506	-284.06061	931.90411	-856.69159	-363.78217	817.71210	-837.38092	-307.64066	811.39447	-825.73688	-353.76660	742.97034	-1229.78613	-315.98032	1402.38940	-1349.24634	-253.95996	1216.95203	-1363.52917	-259.06180	1088.68994	-1391.28821	-304.52084	973.42438	-1361.43201	-399.44104	870.17834	-1404.50366	-361.54874	864.00513	-1402.56982	-412.62262	796.07635	-1002.77094	-374.15079	929.62109	-1219.51440	-370.68591	929.67267	-1051.51221	-187.02477	935.26367	-1197.07092	-187.57414	937.67682	-966.99683	-377.56052	592.10632	-995.68945	-382.02316	458.54459	-1000.72845	-321.54840	277.02792	-1070.98694	-275.67670	70.93742	-1126.69128	-229.65099	45.75053	-1060.72034	-419.66730	32.22383	-1296.71289	-371.75034	597.41235	-1288.17249	-395.49890	441.09027	-1295.07458	-246.73636	350.27069	-1255.85657	-87.37769	217.57443	-1201.17529	-30.98943	226.09071	-1261.35095	-132.06645	80.49416	-1054.36951	-438.23679	1682.40771	-3102.03491	1973.02917	1023.59644	-3140.81274	2012.49182	1022.03571 
80	0.790	-977.63586	-402.77301	1640.72241	-1070.98425	-466.86316	1647.97498	-1043.45398	-298.53036	1617.97473	-1142.90784	-364.30865	1625.24866	-1084.83899	-244.64093	1428.62598	-1105.17639	-201.13786	1132.02625	-1078.54053	-388.04968	1355.26355	-1086.16541	-428.64896	1202.58618	-1173.89026	-185.50909	1240.58594	-921.10925	-315.55185	1379.13660	-848.03986	-278.57526	1193.38586	-855.50311	-261.39063	1041.46802	-835.95166	-303.60516	933.28204	-855.13263	-388.86511	823.16180	-836.91522	-332.69492	814.08521	-824.35040	-381.81708	748.23438	-1228.61084	-329.02151	1403.27319	-1347.78601	-267.07968	1217.64307	-1361.36902	-271.13718	1089.68872	-1390.10364	-312.56580	973.56909	-1360.86133	-402.90393	865.98608	-1404.40295	-365.17410	862.09460	-1402.05334	-412.82361	791.13422	-1000.52838	-385.20102	930.43079	-1217.05383	-384.15558	930.98053	-1051.88416	-198.87605	936.50140	-1197.48010	-200.96872	938.89435	-966.06104	-383.16592	592.13434	-994.59625	-385.50452	458.36401	-1000.53809	-323.50250	277.25223	-1070.97656	-275.98486	71.33723	-1126.76050	-229.88147	46.55252	-1060.51050	-419.76440	32.07086	-1294.85315	-392.29462	599.73730	-1285.74158	-419.21909	444.36502	-1292.92188	-273.01984	349.52200	-1254.14758	-118.28575	210.85081	-1200.00342	-61.03574	215.54799	-1260.29773	-171.71935	77.62218	-1051.80505	-452.16306	1682.54089	-3101.87817	1973.18677	1023.47052	-3140.74219	2012.53699	1022.08606 
81	0.800	-975.60443	-415.72543	1641.03918	-1068.56030	-480.64462	1648.12512	-1042.23242	-311.78293	1618.88086	-1141.16553	-378.30109	1625.93372	-1084.09119	-257.03461	1429.59778	-1104.46228	-213.50052	1132.95251	-1077.03455	-400.53979	1356.17603	-1084.39514	-440.89822	1203.37659	-1173.38367	-198.32915	1241.60754	-920.01978	-327.06116	1380.21301	-846.86578	-290.93442	1194.40991	-854.39044	-276.94623	1041.72864	-834.90442	-323.15598	934.96588	-853.51001	-413.60391	829.18463	-836.43750	-357.68481	817.16443	-823.16565	-409.93610	753.82532	-1227.42236	-342.06885	1404.10120	-1346.56738	-280.09784	1218.37317	-1359.41479	-282.99893	1090.71008	-1388.76086	-320.66403	973.93500	-1360.26697	-406.21552	862.22803	-1404.20081	-368.75250	860.30707	-1401.59058	-412.88107	786.82526	-998.45612	-395.94748	931.24408	-1214.65112	-397.53891	932.21552	-1052.43359	-210.60381	937.67047	-1197.85596	-214.34561	939.97821	-965.12439	-388.53647	592.09631	-993.66608	-388.65656	458.18295	-1000.07849	-325.19266	277.57742	-1070.92566	-276.14392	71.86343	-1127.35388	-230.68944	47.40995	-1060.46375	-419.89325	32.14241	-1292.96423	-412.34598	602.40295	-1282.98035	-442.37146	447.70660	-1290.61841	-299.27148	348.01443	-1252.54285	-150.09372	203.03555	-1198.83325	-91.84581	204.21512	-1259.16919	-211.87056	74.10709	-1049.48914	-466.22913	1682.55566	-3101.92285	1973.12134	1023.54224	-3140.74438	2012.46606	1022.04138 
82	0.810	-973.74316	-428.54810	1641.21497	-1066.19495	-493.96045	1648.01379	-1041.33667	-325.04739	1619.95325	-1139.55383	-392.19473	1626.53894	-1083.44629	-269.67697	1430.38269	-1103.71057	-225.87106	1133.72131	-1075.50806	-413.07660	1356.89807	-1082.67993	-453.22870	1204.14612	-1172.93835	-211.21921	1242.47375	-918.95111	-338.65445	1381.26111	-845.56116	-303.06696	1195.36194	-853.26392	-292.15714	1041.95679	-833.79272	-342.58765	936.84583	-851.87189	-438.14279	835.62207	-836.16064	-382.44122	820.88110	-822.05054	-437.69864	760.10895	-1226.04895	-355.42792	1404.73547	-1345.29590	-292.89648	1218.99524	-1357.46521	-294.63522	1091.63623	-1387.69617	-328.61432	974.33185	-1359.57666	-409.42374	858.96729	-1404.09521	-372.23633	859.12756	-1401.23291	-412.91425	783.20557	-996.15826	-407.15820	932.13977	-1212.34668	-410.86078	933.27771	-1052.88232	-222.32820	938.60907	-1198.26819	-227.78923	940.88910	-964.17242	-393.99695	591.94342	-992.75031	-392.30713	457.96561	-999.57581	-326.64343	277.96121	-1070.99573	-276.47885	72.44064	-1127.66333	-231.41045	48.57327	-1060.36438	-419.91162	32.05881	-1290.81030	-431.86948	605.04651	-1280.15808	-464.93475	450.98087	-1288.36963	-325.79068	345.43665	-1250.91760	-182.66081	194.31259	-1197.21082	-123.80958	191.57349	-1258.34082	-252.69865	70.31253	-1047.27527	-479.68240	1682.82068	-3102.00049	1973.12878	1023.88184	-3140.79028	2012.51733	1021.98383 
83	0.820	-971.90503	-441.22943	1641.43921	-1064.00537	-507.34119	1648.15527	-1040.04504	-338.10236	1620.58728	-1137.89893	-405.86407	1627.02869	-1082.87195	-282.25684	1431.32300	-1103.01343	-238.19077	1134.41589	-1074.01831	-425.62466	1357.61536	-1080.97632	-465.58856	1204.75537	-1172.51685	-224.19150	1243.22253	-917.94836	-350.32626	1382.11572	-844.53198	-315.45975	1196.28516	-852.11377	-306.47153	1042.21533	-832.60083	-361.76410	938.96454	-850.15460	-462.32629	842.63696	-835.14484	-407.22708	825.06268	-820.94458	-465.15829	767.02203	-1224.93408	-368.85385	1405.24683	-1343.86963	-305.58838	1219.51294	-1355.57617	-306.13712	1092.53479	-1386.39661	-336.68686	974.81940	-1358.89722	-412.54068	855.97424	-1403.64478	-375.97482	858.17548	-1400.91760	-413.01303	780.05908	-994.12427	-418.25900	932.66180	-1210.22559	-424.47568	934.31500	-1053.31836	-233.99281	939.42700	-1198.72241	-240.85211	941.79315	-963.24414	-399.67651	591.80389	-991.81140	-396.03796	457.75006	-999.33215	-328.43289	278.55383	-1070.92725	-276.78876	73.35226	-1127.53516	-231.28900	49.71041	-1060.30908	-420.14273	32.05687	-1288.70044	-450.89911	607.68195	-1277.20728	-486.82416	454.11087	-1286.13342	-352.24756	342.21539	-1249.23389	-216.00435	184.65334	-1195.74390	-156.96295	178.26230	-1257.41162	-293.66531	65.99812	-1044.99756	-492.84836	1682.78320	-3101.94458	1973.13147	1023.44550	-3140.76538	2012.50854	1022.06573 
84	0.830	-970.18091	-453.98581	1641.51318	-1061.81653	-520.61438	1648.07861	-1038.73645	-351.03329	1620.99756	-1136.35205	-419.46744	1627.43152	-1081.57581	-295.10016	1431.48450	-1102.35522	-250.55252	1134.96265	-1072.58337	-438.24884	1358.07385	-1079.26379	-477.89209	1205.20740	-1172.07446	-237.20639	1243.81299	-916.92334	-362.19302	1382.93958	-843.31061	-327.66391	1197.09875	-850.96606	-321.01620	1042.31091	-831.39697	-380.82712	941.37195	-848.30048	-485.95438	850.17090	-834.02649	-431.77316	829.85608	-819.69910	-492.27628	774.52618	-1223.99719	-382.27246	1405.75989	-1342.52759	-318.01974	1219.97766	-1353.72937	-317.49704	1093.34668	-1385.20300	-344.56281	975.31635	-1358.17273	-415.64899	853.32922	-1403.32068	-379.71930	857.56909	-1400.70325	-413.19025	777.57312	-992.13135	-429.30121	932.96692	-1208.05212	-436.88644	934.89520	-1053.60107	-245.60406	940.07690	-1198.93445	-254.03748	942.28326	-962.34637	-405.83838	591.63507	-990.94647	-399.80411	457.47641	-999.11578	-330.16962	279.11951	-1071.15686	-277.31537	74.15485	-1128.01526	-231.71065	50.94096	-1060.21851	-420.25089	32.08960	-1286.91553	-469.49573	610.24762	-1274.01892	-508.01254	456.97025	-1283.94739	-378.95493	338.04523	-1247.38721	-250.25177	174.25449	-1193.90833	-191.15717	164.25179	-1256.69666	-335.39282	61.64857	-1042.90564	-506.15692	1682.78333	-3101.91040	1973.25427	1023.47119	-3140.73218	2012.43286	1022.07471 
